<svg xmlns="http://www.w3.org/2000/svg" width="138.714" height="60" viewBox="0 0 138.714 60">
  <g id="Group_28" data-name="Group 28" transform="translate(-106.009 -149.623)">
    <path id="Path_62" data-name="Path 62" d="M233.149,172.33a1.187,1.187,0,0,0,.992.653h17.814L243.1,162.236a1.223,1.223,0,0,1,.124-1.6l-1.6,1.929-7.887,9.553c-.285.3-.483.341-.591.207" transform="translate(-7.264 -0.649)" fill="#8e0020"/>
    <path id="Path_63" data-name="Path 63" d="M251.983,149.623H234.17a1.1,1.1,0,0,0-1.124,1.136v20.751c0,.515.23.7.691.216Z" transform="translate(-7.261 0)" fill="#dc0022"/>
    <path id="Path_64" data-name="Path 64" d="M169.117,200.78v.99c0,6.207,5.136,10.037,12.417,10.037,7.606,0,12.157-4.291,12.157-10.366s-4.226-8.319-8.971-9.838l-4.551-1.386c-2.6-.792-3.121-1.849-3.121-3.1,0-1.981,1.885-3.169,4.291-3.169,2.99,0,4.681,1.518,4.681,3.631v.924H193.3v-.727c0-6.074-4.811-9.7-12.092-9.7-7.021,0-11.377,4.621-11.377,9.639,0,5.216,3.38,7.989,7.542,9.31l5.655,1.782c2.34.727,3.316,1.717,3.316,3.434,0,2.245-1.625,3.566-4.941,3.566-3.12,0-5.071-1.387-5.071-3.764V200.78Z" transform="translate(-3.671 -2.184)" fill="#fdfdfd"/>
    <path id="Path_65" data-name="Path 65" d="M148.81,204.808c-3.251,0-5.239-2.377-5.239-5.546v-8.648c0-3.236,1.988-5.612,5.239-5.612a5.47,5.47,0,0,1,5.564,5.744v8.384a5.453,5.453,0,0,1-5.564,5.679M136,199.2c0,7.329,3.705,12.545,10.857,12.545a9.219,9.219,0,0,0,7.736-3.7l.585,3.037h6.4V178.728h-6.4l-.585,3.036a9.4,9.4,0,0,0-7.736-3.7c-7.151,0-10.857,5.216-10.857,12.545Z" transform="translate(-1.75 -2.184)" fill="#fdfdfd"/>
    <path id="Path_66" data-name="Path 66" d="M132.871,211.1l-10.06-16.158,10.06-16.158h-9.084l-9.6,16.158,9.6,16.158Z" transform="translate(-0.295 -2.21)" fill="#fdfdfd"/>
    <rect id="Rectangle_16" data-name="Rectangle 16" width="7.376" height="32.425" transform="translate(106.009 176.487)" fill="#fdfdfd"/>
    <path id="Path_67" data-name="Path 67" d="M227.4,211.1l-10.06-16.158,10.06-16.158h-8.785l-9.6,16.158,9.6,16.158Z" transform="translate(-5.877 -2.21)" fill="#fdfdfd"/>
    <rect id="Rectangle_17" data-name="Rectangle 17" width="7.376" height="32.425" transform="translate(195.592 176.487)" fill="#fdfdfd"/>
    <rect id="Rectangle_18" data-name="Rectangle 18" width="7.376" height="32.317" transform="translate(225.786 176.595)" fill="#fdfdfd"/>
  </g>
</svg>
